PathFileType	4	(X/Y/Z)	Sub_1_bilateral_squat02_.centers_.trc
DataRate	CameraRate	NumFrames	NumMarkers	Units	OrigDataRate	OrigDataStartFrame	OrigNumFrames
60.0	60.0	4	120	mm	100.0	1	597
Frame#	Time		Back_Left_Head		Back_Right_Head		C7		CenterHead		COP_Projection		COP_Projection_GroundY		F_LHIP		F_RHIP		Front_Left_Head		Front_Right_Head		Girdle_Center		Head		JC.L.Elbow		JC.L.Hand		JC.L.Wrist		JC.R.Elbow		JC.R.Hand		JC.R.Wrist		JC_L.Hip		JC_R.Hip		L.Ankle.Center		L.Ankle.Lateral		L.Elbow		L.Hand		L.Heel		L.Hip		L.Iliac.Crest		L.Knee.Center		L.Knee.Lateral		L.PSIS		L.Shank.Front		L.Shank.Rear		L.Shank.Upper		L.Shoulder		L.Thigh.Front		L.Thigh.Rear		L.Thigh.Upper		L.Toe		L.Wrist.Radial		L.Wrist.Ulnar		LAB_Origin		LAB_X		LAB_Y		LAB_Z		LDFA midpoint		LEFT_FOOT_BORDER1		LEFT_FOOT_BORDER2		LEFT_FOOT_BORDER3		LForearmX		LForearmY		LForearmZ		LHandX		LHandY		LHandZ		LHIP		LLowerArmX		LLowerArmY		LLowerArmZ		LMID_MALLEOLI_V		LPFA midpoint		mid_ASIS		Mid_ASIS_Projection		Mid_ASIS_Projection_Lateral		Mid_ASIS_Projection_LateralZ		North_Virtual_Origin		Offset		Pelvis.Center		Pelvis_Center		PelvisX		PelvisY		PelvisZ		R.Ankle.Center		R.Ankle.Lateral		R.Elbow		R.Hand		R.Heel		R.Hip		R.Iliac.Crest		R.Knee.Center		R.Knee.Lateral		R.Shank.Front		R.Shank.Rear		R.Shank.Upper		R.Shoulder		R.Thigh.Front		R.Thigh.Rear		R.Thigh.Upper		R.Toe		R.Wrist.Radial		R.Wrist.Ulnar		RDFA midpoint		RForearmX		RForearmY		RForearmZ		RHandX		RHandY		RHandZ		RHIP		RIGHT_FOOT_BORDER1		RIGHT_FOOT_BORDER2		RIGHT_FOOT_BORDER3		RLowerArmX		RLowerArmY		RLowerArmZ		RMID_MALLEOLI_V		RPFA midpoint		V.Sacral		v3d_lab_lat_distal		v3d_lab_lat_prox		v3d_lab_med_distal		v3d_lab_med_prox		V_L.Hip.skin		V_R.Hip.skin		V_V.Sacral.skin		Virtual_Lab_Origin		X.Shell.Lower.Shank.Left		X.Shell.Lower.Shank.Right		X.Shell.Lower.Thigh.Left		X.Shell.Lower.Thigh.Right		Z_Virtual_Lab_Origin
			X1	Y1	Z1	X2	Y2	Z2	X3	Y3	Z3	X4	Y4	Z4	X5	Y5	Z5	X6	Y6	Z6	X7	Y7	Z7	X8	Y8	Z8	X9	Y9	Z9	X10	Y10	Z10	X11	Y11	Z11	X12	Y12	Z12	X13	Y13	Z13	X14	Y14	Z14	X15	Y15	Z15	X16	Y16	Z16	X17	Y17	Z17	X18	Y18	Z18	X19	Y19	Z19	X20	Y20	Z20	X21	Y21	Z21	X22	Y22	Z22	X23	Y23	Z23	X24	Y24	Z24	X25	Y25	Z25	X26	Y26	Z26	X27	Y27	Z27	X28	Y28	Z28	X29	Y29	Z29	X30	Y30	Z30	X31	Y31	Z31	X32	Y32	Z32	X33	Y33	Z33	X34	Y34	Z34	X35	Y35	Z35	X36	Y36	Z36	X37	Y37	Z37	X38	Y38	Z38	X39	Y39	Z39	X40	Y40	Z40	X41	Y41	Z41	X42	Y42	Z42	X43	Y43	Z43	X44	Y44	Z44	X45	Y45	Z45	X46	Y46	Z46	X47	Y47	Z47	X48	Y48	Z48	X49	Y49	Z49	X50	Y50	Z50	X51	Y51	Z51	X52	Y52	Z52	X53	Y53	Z53	X54	Y54	Z54	X55	Y55	Z55	X56	Y56	Z56	X57	Y57	Z57	X58	Y58	Z58	X59	Y59	Z59	X60	Y60	Z60	X61	Y61	Z61	X62	Y62	Z62	X63	Y63	Z63	X64	Y64	Z64	X65	Y65	Z65	X66	Y66	Z66	X67	Y67	Z67	X68	Y68	Z68	X69	Y69	Z69	X70	Y70	Z70	X71	Y71	Z71	X72	Y72	Z72	X73	Y73	Z73	X74	Y74	Z74	X75	Y75	Z75	X76	Y76	Z76	X77	Y77	Z77	X78	Y78	Z78	X79	Y79	Z79	X80	Y80	Z80	X81	Y81	Z81	X82	Y82	Z82	X83	Y83	Z83	X84	Y84	Z84	X85	Y85	Z85	X86	Y86	Z86	X87	Y87	Z87	X88	Y88	Z88	X89	Y89	Z89	X90	Y90	Z90	X91	Y91	Z91	X92	Y92	Z92	X93	Y93	Z93	X94	Y94	Z94	X95	Y95	Z95	X96	Y96	Z96	X97	Y97	Z97	X98	Y98	Z98	X99	Y99	Z99	X100	Y100	Z100	X101	Y101	Z101	X102	Y102	Z102	X103	Y103	Z103	X104	Y104	Z104	X105	Y105	Z105	X106	Y106	Z106	X107	Y107	Z107	X108	Y108	Z108	X109	Y109	Z109	X110	Y110	Z110	X111	Y111	Z111	X112	Y112	Z112	X113	Y113	Z113	X114	Y114	Z114	X115	Y115	Z115	X116	Y116	Z116	X117	Y117	Z117	X118	Y118	Z118	X119	Y119	Z119	X120	Y120	Z120

1	0.00000	-131.91760	1511.74524	-69.77985	16.28109	1522.40430	-80.66315	-61.37746	1381.75500	-58.51731	-58.13701	1543.28418	-138.14371	-65.50156	0.00000	-184.04297	-65.50156	0.00000	-284.04297	-128.42044	875.62079	-216.94972	5.24031	875.41479	-216.48021	-132.55511	1564.16418	-195.62427	-4.80606	1571.26270	-203.17943	-62.14473	1399.30188	-111.11380	-60.76661	1634.47253	-97.83104	-207.57851	1348.47327	-420.49268	-180.21014	1465.68262	-686.94312	-185.35576	1419.97278	-627.47748	84.55070	1340.96667	-422.47958	58.25126	1421.59277	-697.15961	57.15495	1434.07593	-624.28949	-119.84747	875.47046	-217.90970	-2.73471	875.32709	-218.08798	-185.56155	76.76306	-142.32361	-219.32748	72.43584	-129.28236	-207.57851	1348.47327	-420.49268	-181.61206	1438.86060	-694.57208	-185.18320	46.57527	-77.15553	-165.86107	939.20581	-272.35187	-213.50278	959.38275	-218.41580	-163.76843	461.23544	-146.24609	-223.47308	469.66571	-149.78230	-115.23486	970.04382	-96.35841	-239.70557	221.94604	-145.96269	-241.36391	222.76241	-96.55377	-247.92609	263.56540	-116.35120	-184.04567	1406.47729	-111.09993	-245.85214	609.43341	-188.99510	-239.69328	620.73322	-131.59540	-241.24510	648.60919	-167.95934	-210.71072	39.78936	-288.91467	-155.40421	1419.26135	-630.48022	-215.30731	1420.68433	-624.47485	0.00000	0.00000	-0.00000	999.99994	0.00000	-0.00000	0.00000	0.00000	-999.99994	0.00000	999.99994	-0.00000	-185.35576	1419.97278	-627.47748	-210.72919	39.86072	-288.87814	-220.64005	74.12086	-130.56926	-182.87189	48.24643	-76.18475	-135.68895	1415.68652	-623.62567	-182.57634	1467.06665	-610.91125	-190.40384	1403.73120	-580.45917	-130.33844	1462.76343	-684.87158	-179.16064	1505.27185	-656.42108	-183.63235	1435.28235	-647.39429	-210.22870	863.13623	-300.83475	-165.41653	1418.65723	-627.08282	-212.52795	1467.77808	-607.90863	-213.52257	1404.00928	-577.37115	-185.93274	78.58181	-141.84859	-196.46712	1384.22302	-523.98511	-61.29610	939.07782	-272.51105	-61.29610	0.00000	-272.51105	-65.50156	0.00000	-272.51105	-65.50156	100.00000	-272.51105	0.00000	0.00000	999.99994	-172.42285	1319.81812	-44.35643	-61.28470	940.08563	-265.83673	-65.50156	952.44073	-184.04297	38.71510	939.96320	-265.98895	-56.39935	925.16785	-364.59702	-61.18637	1038.96460	-280.76755	79.98434	78.07231	-144.45422	113.86109	75.73193	-129.92749	84.55070	1340.96667	-422.47958	55.00495	1448.25134	-691.42694	81.25607	44.16750	-78.51836	43.26885	938.94977	-272.67023	86.70531	951.46655	-215.53484	34.32792	462.14059	-161.05807	94.15033	467.97333	-166.70490	124.55193	255.54340	-135.77802	117.97276	245.24846	-86.79382	133.74681	280.09222	-104.29308	59.75621	1392.12634	-111.12766	119.20099	634.98322	-205.60838	112.73178	616.73688	-145.77144	126.35913	655.01910	-169.63882	115.44707	43.73233	-283.53720	26.61474	1430.29504	-624.00183	87.69515	1437.85681	-624.57721	57.15495	1434.07593	-624.28949	7.81995	1426.63196	-621.02667	62.50675	1389.21619	-645.71295	63.27183	1413.28662	-579.22961	8.88464	1413.68311	-696.54736	66.14982	1372.94946	-688.70789	57.50990	1430.03418	-647.88293	-4.31161	874.09875	-226.87953	115.85215	42.86699	-284.96927	113.81818	75.66315	-128.79816	83.50275	42.65159	-79.26980	37.98735	1433.33191	-627.51996	93.04706	1392.99719	-646.00067	86.99372	1416.24365	-579.49536	79.70889	77.68237	-144.09402	70.85283	1387.52124	-523.38452	-69.70701	965.80365	-95.57489	0.00000	-1.00000	-1.00000	0.00000	0.00000	-1.00000	0.00000	-1.00000	1.00000	0.00000	0.00000	1.00000	-165.84967	940.21362	-265.67755	43.28025	939.95758	-265.99591	-69.37725	964.79669	-102.24120	0.00000	0.00000	-0.00000	-246.60440	195.39949	-126.21249	125.98031	211.25294	-114.74072	-239.80804	580.82373	-149.59053	115.07822	583.51074	-181.79758	0.00000	999.99994	-0.00000
2	0.01667	-132.31052	1511.83032	-70.13608	15.87814	1522.37918	-80.17575	-61.55286	1381.74537	-58.48973	-58.21647	1543.29287	-138.04247	-65.51109	0.00000	-184.00090	-65.51109	0.00000	-284.00089	-128.41480	875.71011	-216.77729	5.24584	875.56180	-216.25706	-132.31108	1564.20675	-195.90920	-4.52247	1571.26822	-202.79953	-62.23952	1399.24342	-111.12847	-60.98608	1634.45969	-97.74438	-207.49421	1348.48226	-420.59002	-180.13703	1465.90244	-686.87278	-185.27298	1420.14639	-627.49494	84.46194	1340.73566	-422.36979	58.26927	1421.02602	-697.15329	57.10982	1433.70871	-624.28830	-119.85704	875.47393	-217.87333	-2.75731	875.34507	-218.00080	-185.62616	76.72767	-142.16432	-219.30640	72.46714	-129.24969	-207.49421	1348.48226	-420.59002	-181.53138	1439.10406	-694.52937	-185.19263	46.57353	-77.17183	-165.84975	939.20392	-272.32128	-213.56817	959.38011	-218.26465	-163.87421	461.20835	-146.04647	-223.47218	469.65689	-149.77952	-115.25178	970.03042	-96.37062	-239.73471	221.91902	-145.91403	-241.35531	222.76086	-96.58911	-247.92640	263.57158	-116.33707	-184.18563	1406.40413	-111.13506	-245.92612	609.44711	-188.82207	-239.67826	620.73114	-131.58527	-241.26022	648.60719	-167.86611	-210.75215	39.81984	-288.84907	-155.33105	1419.44149	-630.48080	-215.21492	1420.85117	-624.50905	0.00000	0.00000	-0.00000	999.99994	0.00000	-0.00000	0.00000	0.00000	-999.99994	0.00000	999.99994	-0.00000	-185.27298	1420.14639	-627.49494	-209.62276	40.85898	-288.90619	-220.65967	74.29235	-130.49527	-183.35356	48.05194	-75.96747	-135.60533	1415.87137	-623.64139	-182.50891	1467.22778	-610.89085	-190.32122	1403.86566	-580.49013	-130.26467	1462.99693	-684.79803	-179.10437	1505.45587	-656.30391	-183.55471	1435.45447	-647.36032	-210.20230	863.13388	-300.82661	-165.32324	1418.83994	-627.11180	-212.45080	1467.93264	-607.90497	-213.43200	1404.13912	-577.41845	-185.92096	78.74893	-141.70021	-196.38359	1384.31439	-524.04244	-61.29642	939.08883	-272.43508	-61.29642	0.00000	-272.43508	-65.51109	0.00000	-272.43508	-65.51109	100.00000	-272.43508	0.00000	0.00000	999.99994	-172.51967	1319.78197	-44.45690	-61.28804	940.09575	-265.76061	-65.51109	952.43379	-184.00090	38.71184	939.98570	-265.86946	-56.39171	925.19220	-364.52249	-61.19544	1038.97692	-280.67761	79.97480	78.09476	-144.52647	113.86820	75.73175	-129.93218	84.46194	1340.73566	-422.36979	54.99936	1447.70838	-691.49223	81.26160	44.16208	-78.54931	43.25691	938.97382	-272.54888	86.73173	951.48816	-215.46899	34.27777	462.18265	-161.06374	94.17134	467.97064	-166.66013	124.57718	255.55410	-135.75041	117.98559	245.25186	-86.76711	133.76620	280.08463	-104.25306	59.70657	1392.08271	-111.12189	119.23468	634.99564	-205.55035	112.72582	616.74326	-145.73447	126.38208	655.02993	-169.56131	115.46055	43.75495	-283.52473	26.66759	1429.93627	-624.09150	87.55205	1437.48123	-624.48509	57.10982	1433.70871	-624.28830	7.78111	1426.20845	-621.05968	62.53136	1388.84280	-645.68115	63.21598	1412.95319	-579.21149	8.91208	1413.05696	-696.55162	66.22246	1372.41537	-688.56569	57.48554	1429.59901	-647.90000	-4.32941	874.11168	-226.77994	115.69902	42.89086	-284.64573	113.77406	75.57098	-128.44898	83.17337	42.74308	-78.97408	37.85164	1432.88645	-627.44433	92.97364	1392.61540	-645.87796	86.86260	1415.89567	-579.38981	79.47808	77.76591	-143.96711	70.78588	1387.22221	-523.32905	-69.72577	965.77876	-95.56673	0.00000	-1.00000	-1.00000	0.00000	0.00000	-1.00000	0.00000	-1.00000	1.00000	0.00000	0.00000	1.00000	-165.84138	940.21080	-265.64681	43.26529	939.98070	-265.87441	-69.39526	964.77278	-102.23316	0.00000	0.00000	-0.00000	-246.59097	195.40881	-126.19263	125.98862	211.24950	-114.70130	-239.81828	580.82988	-149.43477	115.10433	583.51996	-181.75020	0.00000	999.99994	-0.00000
3	0.03333	-132.62934	1511.87508	-70.31674	15.60255	1522.28961	-79.83589	-61.73537	1381.70799	-58.45296	-58.29005	1543.27438	-137.93752	-65.48929	0.00000	-183.97275	-65.48929	0.00000	-283.97275	-128.36843	875.75396	-216.68702	5.29210	875.65423	-216.12912	-132.18264	1564.25927	-196.03912	-4.35335	1571.20950	-202.54079	-62.36631	1399.18111	-111.09925	-61.09586	1634.45000	-97.63879	-207.44528	1348.49162	-420.61723	-180.01731	1466.05050	-686.75227	-185.15070	1420.21697	-627.49081	84.37243	1340.49754	-422.28018	58.15852	1420.59810	-697.11787	57.00782	1433.35716	-624.25338	-119.82553	875.45983	-217.86197	-2.72319	875.33966	-217.96534	-185.58336	76.73846	-142.20279	-219.31109	72.46897	-129.24921	-207.44528	1348.49162	-420.61723	-181.40223	1439.28116	-694.45125	-185.18476	46.56815	-77.17774	-165.81278	939.19006	-272.31782	-213.53010	959.34958	-218.26701	-163.89150	461.19834	-145.97221	-223.44447	469.66075	-149.76416	-115.25318	970.00717	-96.33934	-239.71376	221.91221	-145.92205	-241.34060	222.77035	-96.58451	-247.91452	263.56538	-116.32740	-184.33954	1406.32092	-111.14037	-245.88820	609.43547	-188.82388	-239.65254	620.73444	-131.56836	-241.21556	648.61352	-167.87111	-210.75672	39.81192	-288.85846	-155.21329	1419.52417	-630.46744	-215.08810	1420.90961	-624.51421	0.00000	0.00000	-0.00000	999.99994	0.00000	-0.00000	0.00000	0.00000	-999.99994	0.00000	999.99994	-0.00000	-185.15070	1420.21697	-627.49081	-209.76398	41.19994	-288.78011	-220.66889	74.39249	-130.30928	-183.27368	48.11698	-75.85947	-135.48352	1415.95654	-623.61532	-182.40907	1467.29486	-610.87294	-190.21565	1403.92222	-580.49268	-130.14425	1463.16877	-684.66089	-179.01959	1505.55188	-656.11494	-183.43532	1435.53267	-647.29369	-210.15423	863.11801	-300.83492	-165.19453	1418.91443	-627.09306	-212.34653	1467.98750	-607.89629	-213.32309	1404.18569	-577.42714	-185.89839	78.89714	-141.55719	-196.29798	1384.35431	-524.05402	-61.25712	939.08280	-272.41011	-61.25712	0.00000	-272.41011	-65.48929	-0.00000	-272.41011	-65.48929	100.00000	-272.41011	0.00000	0.00000	999.99994	-172.66122	1319.70988	-44.47220	-61.25019	940.08937	-265.73558	-65.48929	952.42434	-183.97275	38.74971	939.98677	-265.82386	-56.33460	925.19016	-364.49714	-61.16189	1038.97112	-280.64848	80.01033	78.07847	-144.47534	113.87018	75.72091	-129.92441	84.37243	1340.49754	-422.28018	54.91630	1447.29409	-691.48281	81.25680	44.16353	-78.55822	43.29853	938.97551	-272.50240	86.76329	951.48663	-215.43444	34.32124	462.17724	-160.93157	94.19645	467.96481	-166.61575	124.58437	255.54001	-135.73693	118.01005	245.23073	-86.77306	133.78352	280.08023	-104.23739	59.60693	1392.04137	-111.05814	119.26090	634.98460	-205.49532	112.75316	616.73881	-145.68274	126.40796	655.02842	-169.53111	115.46056	43.74136	-283.51879	26.56325	1429.61425	-624.03789	87.45238	1437.10011	-624.46881	57.00782	1433.35716	-624.25338	7.67350	1425.90708	-620.99457	62.37506	1388.47108	-645.61749	63.11666	1412.62733	-579.16511	8.79446	1412.67213	-696.50957	66.06959	1371.98922	-688.48119	57.38083	1429.22114	-647.87320	-4.29199	874.10807	-226.74539	115.64333	42.86116	-284.40852	113.61764	75.57453	-128.22003	82.87946	42.83062	-78.77466	37.74603	1432.55136	-627.39933	92.81958	1392.21395	-645.83296	86.76521	1415.54687	-579.35804	79.29253	77.82693	-143.88338	70.69012	1386.92737	-523.26678	-69.72146	965.76582	-95.53541	0.00000	-1.00000	-1.00000	0.00000	0.00000	-1.00000	0.00000	-1.00000	1.00000	0.00000	0.00000	1.00000	-165.80585	940.19665	-265.64330	43.30546	939.98211	-265.82788	-69.38965	964.76012	-102.20181	0.00000	0.00000	-0.00000	-246.57825	195.40905	-126.17723	125.99747	211.24050	-114.68381	-239.78412	580.82407	-149.44462	115.13368	583.52447	-181.70272	0.00000	999.99994	-0.00000
4	0.05000	-132.85834	1511.92881	-70.37569	15.39730	1522.19420	-79.58828	-61.90794	1381.71369	-58.44802	-58.35609	1543.26700	-137.83827	-65.45403	0.00000	-183.93188	-65.45403	0.00000	-283.93188	-128.32084	875.78447	-216.61006	5.33961	875.72058	-216.02597	-132.10949	1564.33981	-196.08824	-4.27209	1571.17651	-202.34955	-62.50434	1399.14316	-111.08938	-61.13579	1634.45419	-97.56358	-207.40659	1348.51185	-420.61425	-179.85511	1466.11147	-686.71097	-185.00687	1420.27149	-627.47475	84.25046	1340.26309	-422.19466	58.06205	1420.22669	-697.11305	56.91672	1433.04910	-624.22699	-119.79116	875.46264	-217.82777	-2.68639	875.34961	-217.90972	-185.54330	76.74995	-142.21504	-219.29852	72.46368	-129.24414	-207.40659	1348.51185	-420.61425	-181.22943	1439.34895	-694.41560	-185.20977	46.56730	-77.15994	-165.77325	939.19490	-272.28899	-213.50225	959.33576	-218.24401	-163.84019	461.20421	-145.98581	-223.41494	469.64852	-149.76649	-115.23926	969.99392	-96.31993	-239.69219	221.91329	-145.92640	-241.31952	222.76935	-96.55897	-247.89869	263.56697	-116.32637	-184.48094	1406.27233	-111.15888	-245.84828	609.44392	-188.81932	-239.62505	620.72067	-131.55095	-241.18558	648.61351	-167.85984	-210.76262	39.82047	-288.84882	-155.06346	1419.57948	-630.41222	-214.95027	1420.96363	-624.53728	0.00000	0.00000	-0.00000	999.99994	0.00000	-0.00000	0.00000	0.00000	-999.99994	0.00000	999.99994	-0.00000	-185.00687	1420.27149	-627.47475	-210.23293	41.16488	-288.64695	-220.71438	74.41235	-130.15900	-183.05349	48.28750	-75.81985	-135.34085	1416.02404	-623.57013	-182.28795	1467.34803	-610.84956	-190.09549	1403.96960	-580.48164	-129.98235	1463.24471	-684.59200	-178.88702	1505.60602	-656.06381	-183.28601	1435.58334	-647.26147	-210.10719	863.12232	-300.81643	-165.05465	1418.98217	-627.08707	-212.23123	1468.04016	-607.91203	-213.20842	1404.23437	-577.45117	-185.87896	79.00465	-141.44777	-196.20672	1384.39161	-524.04450	-61.21542	939.09396	-272.36214	-61.21542	0.00000	-272.36214	-65.45403	0.00000	-272.36214	-65.45403	100.00000	-272.36214	0.00000	0.00000	999.99994	-172.81666	1319.67087	-44.49573	-61.20979	940.10019	-265.68755	-65.45403	952.42850	-183.93188	38.79013	940.00364	-265.75752	-56.28703	925.20747	-364.44978	-61.12475	1038.98287	-280.59418	80.01828	78.08946	-144.55283	113.87295	75.73724	-129.90909	84.25046	1340.26309	-422.19466	54.82263	1446.93925	-691.49650	81.24296	44.15902	-78.50435	43.34240	938.99302	-272.43532	86.80097	951.49683	-215.37454	34.36291	462.16916	-160.93574	94.21875	467.97700	-166.65647	124.58477	255.55189	-135.74865	118.02493	245.23845	-86.75630	133.78729	280.07809	-104.24339	59.47225	1392.01387	-111.01989	119.30075	635.00286	-205.43667	112.77889	616.74257	-145.65410	126.43319	655.03013	-169.49179	115.45144	43.75362	-283.51706	26.47233	1429.31382	-624.02128	87.36111	1436.78414	-624.43270	56.91672	1433.04910	-624.22699	7.58114	1425.60624	-620.97041	62.28078	1388.15337	-645.57171	63.01816	1412.33738	-579.12936	8.69695	1412.30797	-696.49568	65.96699	1371.62363	-688.43844	57.28833	1428.88883	-647.87523	-4.25046	874.12016	-226.68836	115.69873	42.79727	-284.26743	113.45949	75.62561	-128.10592	82.67493	42.90328	-78.67512	37.65451	1432.23997	-627.36601	92.72516	1391.88841	-645.77736	86.66711	1415.25004	-579.31285	79.18788	77.86243	-143.83790	70.58359	1386.65610	-523.21087	-69.69263	965.76310	-95.50161	0.00000	-1.00000	-1.00000	0.00000	0.00000	-1.00000	0.00000	-1.00000	1.00000	0.00000	0.00000	1.00000	-165.76762	940.20107	-265.61440	43.34804	939.99924	-265.76073	-69.36034	964.75785	-102.16806	0.00000	0.00000	-0.00000	-246.57772	195.40039	-126.16658	126.00021	211.23931	-114.68743	-239.75371	580.82723	-149.43092	115.16302	583.53140	-181.67305	0.00000	999.99994	-0.00000
